The Hangover (2009) DVDSCR-MAXSPEED

Format                           : AVI
Format/Info                      : Audio Video Interleave
File size                        : 729 MiB
Duration                         : 1h 37mn
Overall bit rate                 : 1 041 Kbps
Writing application              : FairUse Wizard
Writing library                  : The best and REALLY easy backup tool

Video
Format                           : MPEG-4 Visual
Format profile                   : Simple[@]L3
Format settings, BVOP            : No
Format settings, QPel            : No
Format settings, GMC             : No warppoints
Format settings, Matrix          : Default (H.263)
Codec ID                         : XVID
Codec ID/Hint                    : XviD
Duration                         : 1h 37mn
Bit rate                         : 904 Kbps
Width                            : 672 pixels
Height                           : 272 pixels
Display aspect ratio             : 2.471
Frame rate                       : 23.976 fps
Resolution                       : 24 bits
Colorimetry                      : 4:2:0
Scan type                        : Progressive
Bits/(Pixel*Frame)               : 0.206
Stream size                      : 633 MiB (87%)
Writing library                  : XviD 1.2.0.dev47 (UTC 2006-11-01)

Audio
Format                           : MPEG Audio
Format version                   : Version 1
Format profile                   : Layer 3
Codec ID                         : 55
Codec ID/Hint                    : MP3
Duration                         : 1h 37mn
Bit rate mode                    : Constant
Bit rate                         : 128 Kbps
Channel(s)                       : 2 channels
Sampling rate                    : 48.0 KHz
Resolution                       : 16 bits
Stream size                      : 89.6 MiB (12%)
Alignment                        : Aligned on interleaves
Interleave, duration             : 42 ms (1.00 video frame)
Interleave, preload duration     : 504 ms
Writing library                  : LAME3.97 
Encoding settings                : -m j -V 4 -q 2 -lowpass 17 -b 128

Screens: 
http://www.postimg.com/image/6000/5220.jpg 
http://www.postimg.com/image/6000/5221.jpg 
http://www.postimg.com/image/6000/5222.jpg 
http://www.postimg.com/image/6000/5223.jpg

ScreenCaps: 
http://www.postimg.com/image/6000/5145.jpg  
http://thepiratebay.org/user/extremezone/0/7

How To Get Your Maxspeed (uTorrent)

Torrent Client - Preferences - Bandwidth - Number of connections - Set aprox. 500 for each 
Torrent Client - Preferences - BiTorrent - Protocol Encryption - Forced
Bandwidth Allocation - High (Set download/upload limit - Unlimited)
Stop Other Active Torrents - Enjoy and Seed at least 1:1 ratio